<svg xmlns="http://www.w3.org/2000/svg" xmlns:xlink="http://www.w3.org/1999/xlink" viewBox="0 0 400.41 337.19"><defs><style>.cls-1{fill:url(#未命名的渐变_155);}.cls-2{opacity:0.54;fill:url(#未命名的渐变_63);}</style><radialGradient id="未命名的渐变_155" cx="325.9" cy="-138.3" r="425.1" gradientUnits="userSpaceOnUse"><stop offset="0.49" stop-color="#bfa6c2"/><stop offset="0.66" stop-color="#beb1cb"/><stop offset="0.82" stop-color="#bdc0d7"/><stop offset="0.94" stop-color="#ead7d3"/><stop offset="1" stop-color="#dde2ef"/></radialGradient><linearGradient id="未命名的渐变_63" x1="57.95" y1="165.56" x2="501.8" y2="165.56" gradientUnits="userSpaceOnUse"><stop offset="0.09" stop-color="#f8d8f0"/><stop offset="0.27" stop-color="#fcdccc"/><stop offset="0.52" stop-color="#f7eabd"/><stop offset="1" stop-color="#d7e2fa"/></linearGradient></defs><title>星球 </title><g id="图层_2" data-name="图层 2"><circle class="cls-1" cx="189.53" cy="159.7" r="99.12"/><path class="cls-2" d="M326.89,84.05c-4.34-4.88-12.11-3.88-18.41-2.18A190.83,190.83,0,0,0,267,97.93a74,74,0,0,1,7.9,11.41c17.36-9.28,40.85-20.18,40.69-12.75a6.93,6.93,0,0,1-1.69,3.83c-10.72,14.37-26.7,25.13-41.62,34.62q-41.56,26.47-84.1,51.4h0q-29.16,17-58.74,33.26c-15.49,8.52-32.6,17.37-50.36,19.87a7,7,0,0,1-4.17-.36c-6.5-3.39,13.67-18.36,30-29.1a46.84,46.84,0,0,1-7-11.68,204.5,204.5,0,0,0-32.51,27.45c-4.52,4.71-9.13,11.05-6.94,17.19,2.63,7.36,12.61,8.34,20.32,7.14,21.21-3.3,40.79-13.06,59.8-23q26.1-13.63,51.76-28.11l.06.11c28.32-16.84,56.61-34.24,84-52.51,17.86-11.89,35.82-24.38,48.9-41.39C328.14,99.11,332.08,89.89,326.89,84.05Z"/></g></svg>